<?xml version="1.0" encoding="utf-8"?>
<!-- Generator: Adobe Illustrator 24.2.1, SVG Export Plug-In . SVG Version: 6.00 Build 0)  -->
<svg version="1.1" id="Layer_1" xmlns="http://www.w3.org/2000/svg" xmlns:xlink="http://www.w3.org/1999/xlink" x="0px" y="0px"
	 viewBox="0 0 512 512" style="enable-background:new 0 0 512 512;" xml:space="preserve">
<style type="text/css">
	.st0{fill:#008B90;}
	.st1{fill:#FF082D;}
	.st2{fill:#F57F23;}
	.st3{fill:#F37D22;}
	.st4{fill:#F5791D;}
</style>
<g>
	<path class="st0" d="M0.16,511.79C0.16,488.11,0,464.6,0,441.08C0,297.1,0,153.13,0,9.15c0-2.24,0.16-4.64,0.16-6.88l0,0
		c0.96-0.8,1.76-0.64,2.72-0.64C34.55,0.51,66.23-0.29,97.9,0.19c49.91,0.8,99.98-0.32,149.89,0c6.88,0,13.76,0.48,20.64,0.16
		c19.2,0.64,38.39,2.88,57.43,7.84c16.32,4.48,32.63,9.92,48.31,17.76c3.2,1.6,6.4,3.2,9.6,4.96c6.72,4,13.6,7.84,20.16,12.64
		c15.68,10.56,30.55,23.04,44.15,38.23c7.84,8.8,15.52,17.76,21.44,29.12c2.88,4.64,5.76,9.44,8.64,14.08
		c7.84,15.04,15.36,30.39,20.96,47.51c1.12,3.68,2.4,7.52,3.68,11.2c1.44,6.24,3.04,12.48,4.48,18.72
		c3.52,21.76,5.44,43.67,4.48,66.07c-0.8,22.56-3.84,44.47-10.24,65.43c-0.32,1.12-0.48,2.4-0.8,3.52
		c-5.12,15.84-11.68,30.71-18.72,44.95c-5.12,8.32-10.24,16.64-15.52,24.96c-15.68,20.8-32.79,38.87-51.83,53.27
		c-9.92,7.68-20.32,14.08-30.71,20.16c-18.72,9.44-37.59,17.76-57.27,22.08c-0.48,0.16-0.8,0.64-1.12,0.8
		c-16,3.52-32.31,5.76-48.47,7.68c-18.88,0-37.75,0-56.63,0c-44.79,0-89.42,0-134.22,0.16c-2.08,0-4,0-6.4-1.28
		c3.2-3.52,6.4-7.04,9.76-10.24c11.84-11.36,24.64-20.48,38.39-26.72c1.6-0.8,3.68-0.96,4.48-3.68c5.28-16,15.36-25.28,25.12-34.71
		c15.36-14.88,31.83-26.24,48.95-36.47c1.92-1.12,3.84-1.12,5.76-1.12c18.88,0,37.75,0,56.63,0c1.6,0,3.36,0.32,4.8-0.8
		c3.84-3.52,8.32-2.08,12.48-2.88c14.72-2.72,28.96-7.2,42.87-14.56c18.88-10.88,35.99-24.96,49.27-47.35
		c10.72-16.64,17.12-36.15,19.52-58.39c2.4-30.39-1.6-58.39-15.04-83.19c-2.08-3.84-4-7.68-6.24-11.52
		c-12.8-19.36-28.48-32.95-45.59-43.19c-15.52-8-31.35-13.6-47.99-16c-5.28-0.8-10.56,0.32-15.68-1.12
		c-2.24-0.96-4.48-0.64-6.72-0.64c-45.11-0.16-90.38,0.32-135.5,0.32c-1.28,0-2.72,0-4,0.16c-2.24,0.16-3.2,1.76-3.2,4.8
		c0,2.08,0,4.16,0,6.24c0.16,31.83-0.32,63.83-0.16,95.66c0,2.24,0,4.64-0.16,6.88c-0.48,3.52-2.56,4.8-4.64,5.92
		c-2.56,1.44-4.96,3.36-7.52,4.8c-7.84,4.16-14.88,9.6-22.24,13.6c0.64,0.96,1.12,2.56,1.44,4.32c1.12,4.32,1.92,8.8,2.88,13.12
		c4,21.44,5.6,43.35,4.64,65.43c-0.96,23.84-4.8,46.87-11.84,68.79c-3.04,8.64-6.4,16.96-12.16,22.88
		c-2.24,2.24-2.08,5.76-2.08,9.12c0.32,11.04-0.64,21.92-2.4,32.79c-0.32,2.72-0.48,5.76-2.4,7.52
		c-2.88,9.76-5.76,19.52-10.24,28.16c-1.44,2.56-2.72,3.84-5.28,3.84C30.55,511.79,15.36,511.79,0.16,511.79z"/>
	<path class="st1" d="M258.2,361.41c-12.16,2.56-23.84,8-35.35,13.44c-31.83,15.04-61.75,34.87-88.15,64.47
		c-4.32,4.8-8.32,10.08-12,16c-5.44-0.16-10.08-3.52-14.24-8c-0.16-0.96-0.32-1.92-0.16-2.72c6.56-12.8,14.08-24.48,20.8-37.11
		c13.44-21.92,26.08-44.79,39.35-66.87c0.96-1.6,1.92-3.2,2.88-4.8c3.68-5.76,6.56-12.48,10.56-17.92c1.44-1.28,2.88-0.8,4.32-0.64
		c5.92,0.8,11.36-1.6,16.32-5.76c7.2-6.08,7.84-18.08,1.44-25.76c-6.56-7.84-14.24-8.96-22.4-6.4c-3.04,0.8-5.6,2.72-7.84,5.44
		c-5.92,6.88-6.72,13.6-1.92,22.08c2.24,4.16,1.92,7.36-0.32,11.04c-2.88,4.8-5.92,9.28-8.48,14.24
		c-10.88,18.08-21.6,36.63-31.99,55.19c-3.52,6.4-7.36,12.64-11.04,18.88c-5.28,9.44-10.72,18.4-16.16,27.84
		c-1.6,2.88-3.2,5.92-5.76,7.52c-5.6-0.8-10.24-4.48-15.04-8c-0.96-2.88,0.48-4.64,1.44-6.56c2.72-5.6,5.12-11.52,7.2-17.6
		c9.6-31.83,12.64-65.11,11.84-99.34c0-1.44-0.32-2.88-0.48-4.32c-0.96-13.6-2.56-27.2-5.6-40.31c-0.32-1.44-0.48-2.88-0.32-4.32
		c2.4-5.28,6.72-5.44,10.24-8.16c20.64-12.48,41.11-25.28,61.43-38.87c4-2.72,7.52-6.72,11.84-8.48c6.24,0.8,11.52,5.28,17.12,8.48
		c22.08,12.8,44.15,25.12,66.23,38.07c2.24,1.28,4.64,2.24,5.44,5.92c0.8,4.64-0.32,9.12-0.48,13.6c-1.6,27.2-2.56,54.39-2.88,81.75
		c0,1.6,0,3.36-0.48,4.96C263.64,361.57,261.24,362.53,258.2,361.41z"/>
	<path class="st2" d="M88.47,481.55c6.72-11.68,13.44-23.36,20.16-34.87c4.48,3.68,9.44,6.08,14.24,8.8
		c-0.64,4.32-2.56,6.56-5.28,8.32c-8.96,5.6-17.6,11.52-26.4,17.44C90.06,481.71,89.26,481.55,88.47,481.55z"/>
	<path class="st3" d="M269.87,253.75c-0.64,0.8-1.28,1.76-1.76,2.56c-29.12-16.96-58.23-34.07-87.67-50.07
		c0.16-0.48,0.32-0.96,0.48-1.44c2.24-4.8,4.32-9.6,7.52-13.12c1.76-0.8,3.2,0.32,4.8,1.12c26.56,15.2,53.11,30.55,79.67,45.91
		c1.28,0.64,2.56,1.44,3.36,3.04C275.95,247.67,272.91,250.71,269.87,253.75z"/>
	<path class="st4" d="M97.74,440.6c-6.56,12-13.28,23.84-19.84,35.83c-0.32-0.16-0.64-0.32-0.96-0.48
		c0.48-6.24,1.12-12.48,1.44-18.72c0.16-4.48,0.32-9.12,0-13.76c-0.48-5.6,0.8-9.28,4.48-11.2C87.83,435,92.78,437.88,97.74,440.6z"
		/>
	<path class="st0" d="M276.27,242.71c-20.32-11.84-40.63-23.68-61.11-35.51c-8.8-5.12-17.76-9.92-26.56-14.72
		c-0.64,0-1.12,0.16-1.76-0.16c-1.6-0.8-3.68-1.44-4.16-4.16c-0.32-2.72,1.44-4.16,2.88-5.6c2.72-4.48,5.44-8.64,7.84-13.44
		c1.76-3.36,3.2-4.32,6.24-2.4c8.64,5.12,17.28,9.76,25.92,14.56c9.92,3.04,18.88,10.08,28.32,15.04c0.64,0.32,1.12,1.44,1.6,2.24
		c0.96,0.48,1.76,0.96,2.72,1.44c3.36-0.32,5.92,2.24,8.8,3.84c8.16,4.48,16.32,9.44,24.32,14.08c5.76,3.36,6.08,5.28,2.08,12.16
		c-2.08,3.68-4.32,7.36-6.4,11.2C283.15,248.31,281.55,248.47,276.27,242.71z"/>
</g>
</svg>
