<?xml version="1.0" encoding="utf-8"?>
<!-- Generator: Adobe Illustrator 24.2.1, SVG Export Plug-In . SVG Version: 6.00 Build 0)  -->
<svg version="1.1" id="Layer_1" xmlns="http://www.w3.org/2000/svg" xmlns:xlink="http://www.w3.org/1999/xlink" x="0px" y="0px"
	 viewBox="0 0 1200 300" style="enable-background:new 0 0 1200 300;" xml:space="preserve">
<style type="text/css">
	.st0{fill:#9E9E9E;}
	.st1{fill:#FFFFFF;}
	.st2{fill:#949494;}
</style>
<g>
	<path class="st0" d="M46.44,179.6c-11.73,28.24-1.42,52.59,25.57,60.26c19.28,5.49,38.75,5.72,58.17,0.69
		c12.93-3.36,24.8-8.98,33.49-20.93c3.06-1.32,4.99-4.01,6.75-6.96c12.71-21.3,7.33-47.77-12.38-61.13
		c-11.31-7.67-23.77-9.8-36.67-10.13c25.43-4.47,48.96,0.4,67.88,20.89c16.86,18.25,16.86,47.35,1.54,69.95
		c-8.54,12.61-19.79,21.49-33.06,25.96c-31.37,10.61-63.22,11.65-95.16,2.99c-8.33-2.26-16.19-6.18-23.05-12.07
		c-16.21-13.87-21.71-35.9-15.15-59.38c7.28-26.07,22.95-45.34,40.85-62.47c38.03-36.36,83.19-58.31,128.78-79.3
		c5.12-2.36,7.87-0.36,9.9,5.01c2.75,7.23-2.75,7.29-5.96,8.65c-36,15.31-70.94,32.98-102.48,58.12
		c-8.27,6.6-17.03,12.76-22.97,22.43c-0.09,0.52-0.36,0.77-0.82,0.79C60.36,152.67,52.37,165.35,46.44,179.6z"/>
	<path class="st1" d="M573.92,173.1c-3.5-3.22-21.57,0.13-23.62,4.82c-1.66,3.78-3.06,3.61-5.74,1.5
		c-13.34-10.49-28.37-11.05-43.43-7.62c-26.4,6.01-39.62,35.72-28.93,63.64c7.65,19.99,30.45,30.49,53.08,24.77
		c7.24-1.82,13.46-6.24,20.25-9.77c1.54,18.99-4.85,27.99-20.73,29.87c-11.17,1.3-22.59,1.23-32.74-4.12
		c-8.62-4.57-11.97-0.48-15.75,6.87c-2.44,4.78-3.4,7.56,2.46,9.69c22.49,8.25,45.24,9.92,68.04,2.65
		c18.58-5.93,27.92-19.32,28.2-39.37c0.34-25.56,0.12-51.13,0.07-76.69C575.08,177.2,575.78,174.79,573.92,173.1z M540.26,236.77
		c-9.48,5.97-19.32,7.77-29.48,3.51c-9.38-3.91-11.82-13.28-11.94-23.31c-0.14-10.84,2.94-20.18,12.52-25.04
		c2.29-1.17,4.85-1.88,7.34-2.23c19.06-2.76,26.76,4.6,26.98,26.42C544.84,222.76,548.63,231.49,540.26,236.77z"/>
	<path class="st1" d="M598.03,216.49c0-12.46,0.17-24.93-0.08-37.39c-0.1-4.89,1.13-7.05,5.73-6.7c4.25,0.33,8.53,0.01,12.8,0
		c2-0.01,4.42-0.23,4.99,2.5c2.32,11,6.83,5.49,11.82,2.6c14.84-8.6,30.56-9.56,46.44-4.48c11.84,3.79,18.61,13.52,18.93,27.49
		c0.43,18.52-0.01,37.07,0.21,55.6c0.06,4.86-1.72,5.66-5.55,5.85c-24.28,1.26-24.27,1.35-24.27-25.97c0-9.27,0.13-18.54-0.09-27.8
		c-0.27-11.32-4.32-16.21-14.22-17.76c-5.18-0.81-10.22,0.06-15.16,1.75c-7.84,2.67-12.42,7.38-11.87,17.88
		c0.78,14.97,0.1,30.03,0.34,45.05c0.08,4.92-1.29,6.48-5.79,6.7c-24.08,1.17-24.08,1.31-24.18-25.18c-0.03-6.71,0-13.42,0-20.13
		C598.07,216.49,598.04,216.49,598.03,216.49z"/>
	<path class="st1" d="M288.71,176.17c-19.81-9.19-40.06-9.11-59.6,0.84c-15.42,7.89-22.99,22.26-22.44,41.46
		c0.53,18.84,9.94,33.31,25.94,39.83c21.47,8.77,42.97,7.44,64.33-0.5c2.9-1.07,8.28-0.71,6.76-7c-2.2-9.31-6.59-12.55-12.76-10.09
		c-9.48,3.76-19.16,6.16-29.24,4.97c-8.64-1.02-16.87-3.47-22.15-12.26c-1.4-2.32-3.18-5.08-1.83-7.92c1.26-2.67,4.08-1.5,6.22-1.52
		c9.65-0.12,19.31-0.06,28.98-0.06v0.1c10.23,0,20.46-0.25,30.69,0.12c4.85,0.17,6.35-1.92,6.64-7.1
		C311.23,199.15,303.41,183,288.71,176.17z M275.61,208.42c-5.36-0.4-10.79-0.08-16.19-0.08v0.1c-5.69,0-11.37-0.15-17.04,0.06
		c-4.2,0.13-5.82-1.38-4.37-6.22c2.32-7.75,10.08-13.45,19.78-13.87c9.1-0.4,17.81,0.58,22.49,11.38
		C282.63,205.25,282.54,208.92,275.61,208.42z"/>
	<path class="st1" d="M367.02,170.16c9.78-0.38,19.88,1.31,29.69,4.73c2.47,0.86,7.74,1.13,5.07,6.15
		c-2.49,4.67-2.58,14.15-10.54,11.61c-8.58-2.74-17.09-4.66-25.97-4.28c-2.81,0.12-5.69,0.49-8.37,1.39
		c-3.29,1.11-6.62,2.9-6.56,7.61c0.05,4.47,3.48,5.6,6.44,6.44c9.34,2.68,18.82,4.78,28.13,7.6c15.3,4.64,22.29,12.79,22.01,24.91
		c-0.27,11.45-8.45,20.68-22.76,24.72c-19.85,5.62-39.41,3.36-58.79-3.32c-4.76-1.64-5.54-3.59-3.28-8.85
		c3.41-7.92,6.62-12.06,15.31-7.38c9.29,5,19.68,6.12,30.03,4.41c4.48-0.74,9.7-1.6,10.46-7.82c0.84-6.92-4.77-8.03-8.96-9.32
		c-9.85-3.04-19.91-5.2-29.74-8.31c-9.22-2.92-16.78-8.26-17.66-20.45c-0.75-10.28,5.24-19.7,15.74-24.73
		C346.6,170.81,356.47,169.82,367.02,170.16z"/>
	<path class="st1" d="M170.41,212.66c-1.76,2.95-3.69,5.64-6.75,6.96c-2.92-2.09-0.72-4.36-0.22-6.62
		c5.12-23.94-4.7-43.67-24.46-48.79c-10.9-2.8-22.03-1.82-33.06-2.15c-4.82-0.13-3.76,3.65-3.77,6.56
		c-0.02,14.35,0.1,28.68,0.14,43.02c0.03,27.76,0.07,27.53-24.64,21.49c-5.11-1.25-6.16-3.61-6.11-8.9
		c0.2-27.07,0.12-54.16,0.14-81.25c0.46-0.02,0.73-0.27,0.82-0.79c16.29-0.27,32.58-0.52,48.88-0.79
		c12.89,0.33,25.36,2.46,36.67,10.13C177.73,164.89,183.11,191.36,170.41,212.66z"/>
	<path class="st1" d="M421.96,215.93c-0.01-11.82,0.28-23.66-0.13-35.46c-0.22-6.4,1.71-8.01,7.28-8.06
		c22.38-0.19,22.38-0.41,22.43,24.42c0.03,18.85-0.22,37.71,0.21,56.55c0.16,6.89-1.9,8.48-7.74,8.46
		c-21.98-0.05-21.99,0.19-22.04-24.83C421.96,229.99,421.97,222.96,421.96,215.93z"/>
	<path class="st0" d="M14.24,198.11c-3.47-11.18-1.62-20.17,0.51-28.92c5.84-24.05,19.82-42.1,35.53-58.61
		c27.09-28.49,59.37-48.06,92.02-66.98c5.66-3.28,7.4,0.59,9.71,5.02c3.08,5.9-1.03,7.21-4.2,8.94
		c-25.87,14.1-51.15,29.36-74.38,48.53c-17.5,14.45-33.61,30.57-45.59,51.2C20.99,169.09,16.81,182.19,14.24,198.11z"/>
	<path class="st0" d="M7.36,208.73c-10.8-23.58-8.99-47.18,0.74-70.5c8.6-20.62,22.23-36.93,37.17-51.84
		C57.81,73.87,71.53,63.02,85.51,52.6c3.98-2.97,7.25-4.64,10.65,1.12c3.63,6.15-0.71,7.69-3.94,10.07
		c-20.95,15.43-41.13,31.9-58.38,52.55C9.4,145.62,2.51,169.88,7.36,208.73z"/>
	<path class="st1" d="M436.36,132.12c3.76,0.02,7.34,0.75,10.79,2.32c4.66,2.12,7.23,5.94,7.24,11.65
		c0.01,5.87-2.97,9.39-7.61,11.27c-5.45,2.21-11.08,2.33-16.69,1.03c-5.97-1.39-10.77-4.56-10.88-12.33
		c-0.11-7.76,4.61-11.04,10.5-12.73C431.88,132.71,434.14,132.51,436.36,132.12z"/>
	<path class="st0" d="M187.46,19.54c14.29-14.8,21.34-18.11,37.83-18.17C218.2,13.93,206.17,19.91,187.46,19.54z"/>
	<path class="st0" d="M175.88,0c-9.9,12.35-21.02,19.7-35.35,19.92C146.18,8.14,156.13,2.4,175.88,0z"/>
	<path class="st0" d="M265.22,9.7c-11.15,11.76-17.98,14.56-30.28,12.83C242.75,12.19,253.25,10.68,265.22,9.7z"/>
	<g>
		<path class="st1" d="M1170.29,262.38c-50.56-0.23-20.7-50.02-33.46-65.93c-8.48-0.26-15.38,2.27-13.82-8.85
			c0.43-5.98,17.01-1.18,18.56-6.28c6.41-19.34,0.21-24.01,22.3-22.4c1.62,0,2.93,1.22,2.93,2.73v18.83
			c-0.75,6.98,30.31-1.51,29.56,5.47c-0.63,2.44,1.88,10.64-2.93,10.51h-23.71c-1.62,0-2.93,1.22-2.93,2.73v39.08
			c0,2.41,4.46,10.99,15.31,10.47c7.51,0.48,21.95-6.2,16.82,2.73C1195.87,256.8,1179.61,262.38,1170.29,262.38z"/>
		<g>
			<g>
				<polygon class="st1" points="795.73,169.28 795.73,262.38 763.48,262.38 763.48,175.71 				"/>
				<polygon class="st1" points="845.76,130.34 845.76,262.38 878.01,262.38 878.01,118.83 				"/>
				<rect x="795.73" y="202.46" class="st1" width="50.03" height="7.45"/>
				<polygon class="st2" points="838.53,133.73 838.53,152.01 731.54,177.41 				"/>
				<rect x="806.28" y="215.83" class="st2" width="29.23" height="46.55"/>
			</g>
			<g>
				<g>
					<rect x="845.76" y="158.26" class="st2" width="15.52" height="3.84"/>
				</g>
				<g>
					<g>
						<rect x="845.76" y="175.49" class="st2" width="15.52" height="3.84"/>
					</g>
				</g>
				<g>
					<rect x="845.76" y="168.11" class="st2" width="8.66" height="1.92"/>
				</g>
				<g>
					<rect x="845.76" y="185.06" class="st2" width="8.66" height="1.92"/>
				</g>
				<g>
					<g>
						<rect x="845.76" y="192.71" class="st2" width="15.52" height="3.84"/>
					</g>
				</g>
			</g>
		</g>
		<g>
			<path class="st1" d="M1004.65,254.96c-0.41-3.01-2.99-2.13-4.92-2c-14.55,0.88-7.74-20.43-9.24-30.53h-0.14
				c0.3-18.76,1.8-38.05-18.17-42.27c-13.23-4.71-69.71-9.99-65.68,15.15c-1.14,7.93,4.98,9.25,7.55,2.11
				c9.13-16.84,46.43-21.98,46.14,4.55c-2.36,14.96-40.5,10.53-51.95,19.98c-7.24,4.1-11.6,10.36-10.95,19.8
				c5.27,27.81,41.88,22.61,59.33,12.57c1.74-1,3.2-4.65,5.74-1.71c11.15,12.8,24.46,9.04,37.61,6.25
				C1001.93,258.46,1005.18,258.7,1004.65,254.96z M960.06,229.23c0.1,16.37-6.03,23.31-19.42,21.91
				c-13.54,0.41-17.97-22.14-5.19-27.53c6.73-3.28,13.9-5.41,20.89-8.06C962.76,213.59,959.16,225.25,960.06,229.23z"/>
			<polygon class="st2" points="968.79,171.02 946.03,171.02 946.03,145.45 			"/>
			<polygon class="st2" points="942.09,145.45 942.09,171.02 919.33,171.02 			"/>
			<path class="st2" d="M951.67,224.59v16.9c-0.12,0.17-0.24,0.33-0.38,0.48c-1.43,1.65-3.79,2.44-7.21,2.44
				c-0.82,0-1.71-0.04-2.63-0.15l-0.36-0.04l-0.58,0.02c-1.43,0-2.6-0.5-3.52-1.29c-0.07-0.31-0.1-0.61-0.1-0.94v-11.42
				c0.29-0.19,0.61-0.36,0.97-0.52l0.27-0.13C942.41,227.85,946.92,226.26,951.67,224.59z"/>
		</g>
		<g>
			<path class="st1" d="M1120.92,254.96c-0.41-3.01-2.99-2.13-4.92-2c-14.55,0.88-7.74-20.43-9.24-30.53h-0.14
				c0.3-18.76,1.8-38.05-18.17-42.27c-13.23-4.71-69.71-9.99-65.68,15.15c-1.14,7.93,4.98,9.25,7.55,2.11
				c9.13-16.84,46.43-21.98,46.14,4.55c-2.36,14.96-40.5,10.53-51.95,19.98c-7.24,4.1-11.6,10.36-10.95,19.8
				c5.27,27.81,41.88,22.61,59.33,12.57c1.74-1,3.2-4.65,5.74-1.71c11.15,12.8,24.46,9.04,37.61,6.25
				C1118.2,258.46,1121.44,258.7,1120.92,254.96z M1076.33,229.23c0.1,16.37-6.03,23.31-19.42,21.91
				c-13.54,0.41-17.96-22.14-5.19-27.53c6.73-3.28,13.9-5.41,20.89-8.06C1079.03,213.59,1075.43,225.25,1076.33,229.23z"/>
			<path class="st2" d="M1067.72,224.59v16.9c-0.12,0.17-0.24,0.33-0.38,0.48c-1.43,1.65-3.79,2.44-7.21,2.44
				c-0.82,0-1.71-0.04-2.63-0.15l-0.36-0.04l-0.58,0.02c-1.43,0-2.6-0.5-3.52-1.29c-0.07-0.31-0.1-0.61-0.1-0.94v-11.42
				c0.29-0.19,0.61-0.36,0.97-0.52l0.27-0.13C1058.46,227.85,1062.97,226.26,1067.72,224.59z"/>
		</g>
	</g>
</g>
</svg>
