<?xml version="1.0" encoding="utf-8"?>
<!-- Generator: Adobe Illustrator 24.2.1, SVG Export Plug-In . SVG Version: 6.00 Build 0)  -->
<svg version="1.1" id="Layer_1" xmlns="http://www.w3.org/2000/svg" xmlns:xlink="http://www.w3.org/1999/xlink" x="0px" y="0px"
	 viewBox="0 0 512 512" style="enable-background:new 0 0 512 512;" xml:space="preserve">
<style type="text/css">
	.st0{fill:#FFBF00;}
	.st1{fill:#FF0000;}
	.st2{fill:#FF08FF;}
</style>
<g>
	<path class="st0" d="M56.12,455.83c0-18.5-0.12-36.87-0.12-55.24c0-112.48,0-224.96,0-337.44c0-1.75,0.12-3.62,0.12-5.37l0,0
		c0.75-0.62,1.37-0.5,2.12-0.5c24.75-0.87,49.49-1.5,74.24-1.12c38.99,0.62,78.11-0.25,117.11,0c5.37,0,10.75,0.37,16.12,0.12
		c15,0.5,29.99,2.25,44.87,6.12c12.75,3.5,25.5,7.75,37.74,13.87c2.5,1.25,5,2.5,7.5,3.87c5.25,3.12,10.62,6.12,15.75,9.87
		c12.25,8.25,23.87,18,34.49,29.87c6.12,6.87,12.12,13.87,16.75,22.75c2.25,3.62,4.5,7.37,6.75,11c6.12,11.75,12,23.75,16.37,37.12
		c0.87,2.87,1.87,5.87,2.87,8.75c1.12,4.87,2.37,9.75,3.5,14.62c2.75,17,4.25,34.12,3.5,51.62c-0.62,17.62-3,34.74-8,51.12
		c-0.25,0.87-0.37,1.87-0.62,2.75c-4,12.37-9.12,24-14.62,35.12c-4,6.5-8,13-12.12,19.5c-12.25,16.25-25.62,30.37-40.49,41.62
		c-7.75,6-15.87,11-24,15.75c-14.62,7.37-29.37,13.87-44.74,17.25c-0.37,0.13-0.62,0.5-0.87,0.62c-12.5,2.75-25.25,4.5-37.87,6
		c-14.75,0-29.5,0-44.24,0c-34.99,0-69.86,0-104.86,0.13c-1.62,0-3.12,0-5-1c2.5-2.75,5-5.5,7.62-8c9.25-8.87,19.25-16,29.99-20.87
		c1.25-0.62,2.87-0.75,3.5-2.87c4.12-12.5,12-19.75,19.62-27.12c12-11.62,24.87-20.5,38.24-28.5c1.5-0.87,3-0.87,4.5-0.87
		c14.75,0,29.5,0,44.24,0c1.25,0,2.62,0.25,3.75-0.62c3-2.75,6.5-1.62,9.75-2.25c11.5-2.12,22.62-5.62,33.49-11.37
		c14.75-8.5,28.12-19.5,38.49-36.99c8.37-13,13.37-28.25,15.25-45.62c1.87-23.75-1.25-45.62-11.75-64.99c-1.62-3-3.12-6-4.87-9
		c-10-15.12-22.25-25.75-35.62-33.74c-12.12-6.25-24.5-10.62-37.49-12.5c-4.12-0.62-8.25,0.25-12.25-0.87
		c-1.75-0.75-3.5-0.5-5.25-0.5c-35.24-0.12-70.61,0.25-105.86,0.25c-1,0-2.12,0-3.12,0.12c-1.75,0.12-2.5,1.37-2.5,3.75
		c0,1.62,0,3.25,0,4.87c0.12,24.87-0.25,49.87-0.12,74.74c0,1.75,0,3.62-0.12,5.37c-0.37,2.75-2,3.75-3.62,4.62
		c-2,1.12-3.87,2.62-5.87,3.75c-6.12,3.25-11.62,7.5-17.37,10.62c0.5,0.75,0.87,2,1.12,3.37c0.87,3.37,1.5,6.87,2.25,10.25
		c3.12,16.75,4.37,33.87,3.62,51.12c-0.75,18.62-3.75,36.62-9.25,53.74c-2.37,6.75-5,13.25-9.5,17.87c-1.75,1.75-1.62,4.5-1.62,7.12
		c0.25,8.62-0.5,17.12-1.87,25.62c-0.25,2.12-0.37,4.5-1.87,5.87c-2.25,7.62-4.5,15.25-8,22c-1.12,2-2.12,3-4.12,3
		C79.87,455.83,68,455.83,56.12,455.83z"/>
	<path class="st1" d="M257.72,338.35c-9.5,2-18.62,6.25-27.62,10.5c-24.87,11.75-48.24,27.25-68.86,50.37
		c-3.37,3.75-6.5,7.87-9.37,12.5c-4.25-0.12-7.87-2.75-11.12-6.25c-0.12-0.75-0.25-1.5-0.12-2.12c5.12-10,11-19.12,16.25-29
		c10.5-17.12,20.37-34.99,30.74-52.24c0.75-1.25,1.5-2.5,2.25-3.75c2.87-4.5,5.12-9.75,8.25-14c1.12-1,2.25-0.62,3.37-0.5
		c4.62,0.62,8.87-1.25,12.75-4.5c5.62-4.75,6.12-14.12,1.12-20.12c-5.12-6.12-11.12-7-17.5-5c-2.37,0.62-4.37,2.12-6.12,4.25
		c-4.62,5.37-5.25,10.62-1.5,17.25c1.75,3.25,1.5,5.75-0.25,8.62c-2.25,3.75-4.62,7.25-6.62,11.12c-8.5,14.12-16.87,28.62-25,43.12
		c-2.75,5-5.75,9.87-8.62,14.75c-4.12,7.37-8.37,14.37-12.62,21.75c-1.25,2.25-2.5,4.62-4.5,5.87c-4.37-0.62-8-3.5-11.75-6.25
		c-0.75-2.25,0.37-3.62,1.12-5.12c2.12-4.37,4-9,5.62-13.75c7.5-24.87,9.87-50.87,9.25-77.61c0-1.12-0.25-2.25-0.37-3.37
		c-0.75-10.62-2-21.25-4.37-31.49c-0.25-1.12-0.37-2.25-0.25-3.37c1.87-4.12,5.25-4.25,8-6.37c16.12-9.75,32.12-19.75,47.99-30.37
		c3.12-2.12,5.87-5.25,9.25-6.62c4.87,0.62,9,4.12,13.37,6.62c17.25,10,34.49,19.62,51.74,29.74c1.75,1,3.62,1.75,4.25,4.62
		c0.62,3.62-0.25,7.12-0.37,10.62c-1.25,21.25-2,42.49-2.25,63.86c0,1.25,0,2.62-0.37,3.87
		C261.97,338.48,260.09,339.23,257.72,338.35z"/>
	<path class="st2" d="M125.11,432.21c5.25-9.12,10.5-18.25,15.75-27.25c3.5,2.87,7.37,4.75,11.12,6.87c-0.5,3.37-2,5.12-4.12,6.5
		c-7,4.37-13.75,9-20.62,13.62C126.36,432.34,125.74,432.21,125.11,432.21z"/>
	<path class="st2" d="M266.84,254.24c-0.5,0.62-1,1.37-1.37,2c-22.75-13.25-45.49-26.62-68.49-39.12c0.12-0.37,0.25-0.75,0.37-1.12
		c1.75-3.75,3.37-7.5,5.87-10.25c1.37-0.62,2.5,0.25,3.75,0.87c20.75,11.87,41.49,23.87,62.24,35.87c1,0.5,2,1.12,2.62,2.37
		C271.59,249.49,269.21,251.87,266.84,254.24z"/>
	<path class="st2" d="M132.36,400.22c-5.12,9.37-10.37,18.62-15.5,28c-0.25-0.12-0.5-0.25-0.75-0.37c0.37-4.87,0.87-9.75,1.12-14.62
		c0.12-3.5,0.25-7.12,0-10.75c-0.37-4.37,0.62-7.25,3.5-8.75C124.61,395.84,128.49,398.09,132.36,400.22z"/>
	<path class="st0" d="M271.84,245.62c-15.87-9.25-31.74-18.5-47.74-27.75c-6.87-4-13.87-7.75-20.75-11.5c-0.5,0-0.87,0.12-1.37-0.12
		c-1.25-0.62-2.87-1.12-3.25-3.25c-0.25-2.12,1.12-3.25,2.25-4.37c2.12-3.5,4.25-6.75,6.12-10.5c1.37-2.62,2.5-3.37,4.87-1.87
		c6.75,4,13.5,7.62,20.25,11.37c7.75,2.37,14.75,7.87,22.12,11.75c0.5,0.25,0.87,1.12,1.25,1.75c0.75,0.37,1.37,0.75,2.12,1.12
		c2.62-0.25,4.62,1.75,6.87,3c6.37,3.5,12.75,7.37,19,11c4.5,2.62,4.75,4.12,1.62,9.5c-1.62,2.87-3.37,5.75-5,8.75
		C277.21,249.99,275.96,250.12,271.84,245.62z"/>
</g>
</svg>
